# xmcd
#
# Track frame offsets:
#	150
#	16648
#	33512
#	51737
#	66912
#	81725
#	100993
#	117799
#	134709
#	152982
#	181178
#	199773
#
# Disc length: 2854 seconds
#
# Revision: 0
# Processed by: cddbd v1.5.2PL0 Copyright (c) Steve Scherf et al.
# Submitted via: audiograbber 1.83.01
#
DISCID=ae0b240c
DTITLE=JonesTm - HC200825
DYEAR=2008
DGENRE=Country
TTITLE0=Pat Green - Let Me
TTITLE1=Jeff Bates - Riverbank
TTITLE2=Rascal Flatts - Bob That Head
TTITLE3=Sunny Sweeney - East Texas Pines
TTITLE4=Randy Owen - Like I Never Broke Her Heart
TTITLE5=Poonanny The Blues Comedian - Lap Dance [Radio Clean]
TTITLE6=Chante Moore - It Ain't Supposed To Be This Way [Album Version]
TTITLE7=Rick Braun and Richard Elliot - Que Paso [Radio Edit]
TTITLE8=Jimmy Sommers Feat. Vikter Duplaix - If I Knew
TTITLE9=Incognito - N.O.T.[Album Version]
TTITLE10=Steve Winwood - Fly [Radio Edit]
TTITLE11=Novello - Apologize [With Sax]
EXTD=
EXTT0=
EXTT1=
EXTT2=
EXTT3=
EXTT4=
EXTT5=
EXTT6=
EXTT7=
EXTT8=
EXTT9=
EXTT10=
EXTT11=
PLAYORDER=
